<svg width="108" height="79" viewBox="0 0 108 79" fill="none" xmlns="http://www.w3.org/2000/svg">
<path opacity="0.5" d="M53.5026 7.99003C50.1126 9.4905 46.2436 11.5537 41.8956 14.1795C37.6213 16.7303 34.1945 19.2061 31.6151 21.6068C28.6673 24.3077 25.9775 27.3462 23.5455 30.7222C21.1873 34.0983 19.3449 37.962 18.0184 42.3134H24.2088C30.6203 42.3134 35.4104 43.5513 38.5793 46.0271C41.7482 48.5028 43.3326 51.9539 43.3326 56.3803C43.3326 62.0821 40.9744 67.2963 36.2579 72.0228C31.5415 76.6743 25.9406 79 19.4555 79C12.6018 79 7.62743 77.1244 4.53224 73.3732C1.51075 69.547 0 64.6329 0 58.6311C0 46.8523 4.86387 35.5613 14.5916 24.7578C24.393 13.9544 36.3316 5.7018 50.4074 0L53.5026 7.99003ZM108 7.99003C104.61 9.4905 100.741 11.5537 96.393 14.1795C92.1187 16.7303 88.6919 19.2061 86.1126 21.6068C83.1648 24.3077 80.4749 27.3462 78.043 30.7222C75.6847 34.0983 73.8424 37.962 72.5159 42.3134H78.7062C85.1177 42.3134 89.9079 43.5513 93.0768 46.0271C96.2457 48.5028 97.8301 51.9539 97.8301 56.3803C97.8301 62.0821 95.4719 67.2963 90.7554 72.0228C86.0389 76.6743 80.4381 79 73.9529 79C67.0993 79 62.1249 77.1244 59.0297 73.3732C56.0082 69.547 54.4974 64.6329 54.4974 58.6311C54.4974 46.8523 59.3613 35.5613 69.0891 24.7578C78.8905 13.9544 90.8291 5.7018 104.905 0L108 7.99003Z" fill="#E0E0E0"/>
</svg>
